<svg width="19" height="21" viewBox="0 0 19 21" fill="none" xmlns="http://www.w3.org/2000/svg">
<path id="Vector" d="M14.1174 10.56L13.0574 9.5L8.1774 14.38L6.0574 12.26L4.9974 13.32L8.1774 16.5L14.1174 10.56ZM16.5874 2.5H15.5874V0.5H13.5874V2.5H5.5874V0.5H3.5874V2.5H2.5874C1.4774 2.5 0.597402 3.4 0.597402 4.5L0.587402 18.5C0.587402 19.6 1.4774 20.5 2.5874 20.5H16.5874C17.6874 20.5 18.5874 19.6 18.5874 18.5V4.5C18.5874 3.4 17.6874 2.5 16.5874 2.5ZM16.5874 18.5H2.5874V7.5H16.5874V18.5Z" fill="currentColor"/>
</svg>
