<svg width="24" height="25" viewBox="0 0 24 25" fill="none" xmlns="http://www.w3.org/2000/svg">
<g id="vuesax/linear/call">
<g id="call">
<g id="call_2">
<path id="Vector" d="M21.97 19.1894C21.97 19.5494 21.89 19.9194 21.72 20.2794C21.55 20.6394 21.33 20.9794 21.04 21.2994C20.55 21.8394 20.01 22.2294 19.4 22.4794C18.8 22.7294 18.15 22.8594 17.45 22.8594C16.43 22.8594 15.34 22.6194 14.19 22.1294C13.04 21.6394 11.89 20.9794 10.75 20.1494C9.6 19.3094 8.51 18.3794 7.47 17.3494C6.44 16.3094 5.51 15.2194 4.68 14.0794C3.86 12.9394 3.2 11.7994 2.72 10.6694C2.24 9.52938 2 8.43937 2 7.39937C2 6.71937 2.12 6.06938 2.36 5.46938C2.6 4.85938 2.98 4.29938 3.51 3.79938C4.15 3.16938 4.85 2.85938 5.59 2.85938C5.87 2.85938 6.15 2.91938 6.4 3.03938C6.66 3.15938 6.89 3.33938 7.07 3.59938L9.39 6.86938C9.57 7.11938 9.7 7.34938 9.79 7.56938C9.88 7.77938 9.93 7.98938 9.93 8.17938C9.93 8.41938 9.86 8.65937 9.72 8.88937C9.59 9.11937 9.4 9.35937 9.16 9.59937L8.4 10.3894C8.29 10.4994 8.24 10.6294 8.24 10.7894C8.24 10.8694 8.25 10.9394 8.27 11.0194C8.3 11.0994 8.33 11.1594 8.35 11.2194C8.53 11.5494 8.84 11.9794 9.28 12.4994C9.73 13.0194 10.21 13.5494 10.73 14.0794C11.27 14.6094 11.79 15.0994 12.32 15.5494C12.84 15.9894 13.27 16.2894 13.61 16.4694C13.66 16.4894 13.72 16.5194 13.79 16.5494C13.87 16.5794 13.95 16.5894 14.04 16.5894C14.21 16.5894 14.34 16.5294 14.45 16.4194L15.21 15.6694C15.46 15.4194 15.7 15.2294 15.93 15.1094C16.16 14.9694 16.39 14.8994 16.64 14.8994C16.83 14.8994 17.03 14.9394 17.25 15.0294C17.47 15.1194 17.7 15.2494 17.95 15.4194L21.26 17.7694C21.52 17.9494 21.7 18.1594 21.81 18.4094C21.91 18.6594 21.97 18.9094 21.97 19.1894Z" stroke="currentColor" stroke-width="1.2" stroke-miterlimit="10"/>
</g>
</g>
</g>
</svg>
