<svg width="18" height="21" viewBox="0 0 18 21" fill="none" xmlns="http://www.w3.org/2000/svg">
<path id="Vector" d="M8.75632 10.5C10.0742 10.5 11.338 9.97322 12.2699 9.03553C13.2018 8.09785 13.7253 6.82608 13.7253 5.5C13.7253 4.17392 13.2018 2.90215 12.2699 1.96447C11.338 1.02678 10.0742 0.5 8.75632 0.5C7.43847 0.5 6.1746 1.02678 5.24275 1.96447C4.31089 2.90215 3.78738 4.17392 3.78738 5.5C3.78738 6.82608 4.31089 8.09785 5.24275 9.03553C6.1746 9.97322 7.43847 10.5 8.75632 10.5ZM5.02961 12.6562C2.15694 13.5039 0.0606689 16.1758 0.0606689 19.3398C0.0606689 19.9805 0.576973 20.5 1.21362 20.5H16.299C16.9357 20.5 17.452 19.9805 17.452 19.3398C17.452 16.1758 15.3557 13.5039 12.483 12.6562V14.6406C13.5545 14.918 14.3464 15.8984 14.3464 17.0625V18.625C14.3464 18.9688 14.0669 19.25 13.7253 19.25H13.1041C12.7625 19.25 12.483 18.9688 12.483 18.625C12.483 18.2812 12.7625 18 13.1041 18V17.0625C13.1041 16.3711 12.549 15.8125 11.8619 15.8125C11.1748 15.8125 10.6197 16.3711 10.6197 17.0625V18C10.9613 18 11.2408 18.2812 11.2408 18.625C11.2408 18.9688 10.9613 19.25 10.6197 19.25H9.99856C9.65694 19.25 9.37744 18.9688 9.37744 18.625V17.0625C9.37744 15.8984 10.1694 14.918 11.2408 14.6406V12.4102C11.0079 12.3867 10.7711 12.375 10.5304 12.375H6.98225C6.74157 12.375 6.50477 12.3867 6.27185 12.4102V14.9648C7.16859 15.2344 7.82464 16.0703 7.82464 17.0625C7.82464 18.2695 6.85026 19.25 5.65073 19.25C4.4512 19.25 3.47682 18.2695 3.47682 17.0625C3.47682 16.0703 4.13287 15.2344 5.02961 14.9648V12.6562ZM5.65073 18C5.89783 18 6.1348 17.9012 6.30953 17.7254C6.48425 17.5496 6.58241 17.3111 6.58241 17.0625C6.58241 16.8139 6.48425 16.5754 6.30953 16.3996C6.1348 16.2238 5.89783 16.125 5.65073 16.125C5.40363 16.125 5.16666 16.2238 4.99194 16.3996C4.81721 16.5754 4.71905 16.8139 4.71905 17.0625C4.71905 17.3111 4.81721 17.5496 4.99194 17.7254C5.16666 17.9012 5.40363 18 5.65073 18Z" fill="currentColor"/>
</svg>
