<svg width="28" height="29" viewBox="0 0 28 29" fill="none" xmlns="http://www.w3.org/2000/svg">
<g id="drugs-medicine-svgrepo-com 1" clip-path="url(#clip0_1340_24455)">
<g id="Group">
<g id="Group_2">
<path id="Vector" d="M21.7873 12.3847L22.4514 11.7206C24.8265 9.34534 24.8273 5.50202 22.453 3.12759C21.3031 1.97779 19.7745 1.36523 18.1482 1.36523C18.1475 1.36523 18.1466 1.36523 18.1459 1.36523C16.5191 1.36523 14.9894 1.97932 13.8386 3.13011L1.78708 15.1715C0.634539 16.324 -5.4684e-05 17.8491 3.53432e-09 19.4757C0.000164066 21.1011 0.633883 22.6329 1.78451 23.7834C2.93475 24.9338 4.4637 25.5711 6.08962 25.5711C6.09038 25.5711 6.09093 25.5711 6.09175 25.5711C7.71673 25.5711 9.24454 24.9329 10.3934 23.784L12.3539 21.8208C13.1356 25.3694 16.3035 28.0321 20.0836 28.0321C24.4487 28.0321 27.9999 24.4801 27.9999 20.115C28 16.3349 25.3361 13.1662 21.7873 12.3847ZM14.6999 3.99133C15.6208 3.07039 16.8447 2.58312 18.1464 2.58312C18.1471 2.58312 18.1476 2.58312 18.1483 2.58312C19.4491 2.58312 20.6721 3.06908 21.5918 3.98881C23.4913 5.88822 23.4906 8.96931 21.5901 10.8697L20.2473 12.2073C20.1927 12.2062 20.1385 12.2006 20.0837 12.2006C17.6558 12.2006 15.4808 13.2989 14.0275 15.0251L8.83717 9.84453L14.6999 3.99133ZM12.1673 20.1145C12.1673 20.1695 12.1703 20.2262 12.1714 20.2809L9.53214 22.9227C8.61323 23.8417 7.39145 24.3531 6.09159 24.3531C6.09109 24.3531 6.09049 24.3531 6.08989 24.3531C4.7892 24.3531 3.56601 23.84 2.64567 22.9197C1.72501 21.9992 1.218 20.7733 1.21784 19.4732C1.21778 18.172 1.72566 16.946 2.64819 16.0237L7.9759 10.6954L13.3072 16.0263C12.5841 17.2205 12.1673 18.6196 12.1673 20.1145ZM20.0837 26.8128C16.3901 26.8128 13.3852 23.8079 13.3852 20.1143C13.3852 18.4864 13.9695 16.9927 14.9387 15.8306L24.3674 25.2592C23.2053 26.2285 21.7116 26.8128 20.0837 26.8128ZM25.2285 24.3981L15.7999 14.9694C16.9619 14.0002 18.4557 13.4159 20.0837 13.4159C23.7772 13.4159 26.7821 16.4208 26.7821 20.1143C26.7821 21.7423 26.1978 23.236 25.2285 24.3981Z" fill="currentColor"/>
</g>
</g>
</g>
<defs>
<clipPath id="clip0_1340_24455">
<rect width="28" height="28" fill="white" transform="translate(0 0.699219)"/>
</clipPath>
</defs>
</svg>
