<svg width="21" height="21" viewBox="0 0 21 21" fill="none" xmlns="http://www.w3.org/2000/svg">
<path id="Vector" fill-rule="evenodd" clip-rule="evenodd" d="M8.22347 1.74202C6.56229 0.0866188 3.80505 0.0866188 2.14339 1.74202C0.406631 3.40369 0.406631 6.16046 2.14339 7.8977L13.5108 19.2588C15.2475 20.9137 17.9417 20.9137 19.6784 19.2588C21.3401 17.5278 21.3401 14.8404 19.6784 13.1094L8.22347 1.74202ZM7.74548 4.10841C8.05981 3.87543 8.53828 3.87543 8.77752 4.10841C9.09233 4.42948 9.09233 4.9012 8.77752 5.13418C8.53876 5.44899 8.06029 5.44899 7.74548 5.13418C7.50625 4.90169 7.50625 4.42948 7.74548 4.10841ZM2.92369 3.5611C2.60936 3.24003 2.60936 2.76829 2.92369 2.53531C3.2385 2.2205 3.64138 2.2205 3.95619 2.53531C4.19543 2.76829 4.19543 3.24052 3.95619 3.5611C3.64186 3.79408 3.23898 3.79408 2.92369 3.5611ZM3.71745 5.92747C3.47821 5.68824 3.47821 5.21651 3.71745 4.9017C4.03178 4.66246 4.42216 4.66246 4.74948 4.9017C5.06381 5.21651 5.06381 5.68872 4.74948 5.92747C4.42216 6.24228 4.03178 6.24228 3.71745 5.92747ZM5.5423 8.36942C5.30355 8.68423 4.82506 8.68423 4.50977 8.36942C4.27102 8.05461 4.27102 7.65798 4.50977 7.34365C4.82458 7.11115 5.30307 7.11115 5.5423 7.34365C5.84508 7.65846 5.84508 8.05509 5.5423 8.36942ZM5.37863 4.34765C5.0643 4.03284 5.0643 3.63619 5.37863 3.32186C5.61787 3.08262 6.08383 3.08262 6.41116 3.32186C6.63788 3.63667 6.63788 4.03332 6.41116 4.34765C6.08383 4.66246 5.61787 4.66246 5.37863 4.34765ZM6.17239 6.79633C5.84506 6.48152 5.84506 6.00305 6.17239 5.77055C6.41114 5.44949 6.87711 5.44949 7.19143 5.77055C7.43115 6.00305 7.43115 6.482 7.19143 6.79633C6.87662 7.02883 6.41114 7.02883 6.17239 6.79633ZM9.33156 13.4237L7.90916 12.0013C6.72597 10.8176 6.72597 8.76607 7.90916 7.58288C9.16792 6.31786 11.22 6.31786 12.4032 7.58288L13.8256 8.92347C15.0973 10.1885 15.0973 12.1587 13.8256 13.4237C12.5668 14.6825 10.5903 14.6825 9.33156 13.4237ZM13.9892 16.8164C13.75 17.1312 13.272 17.1312 13.0328 16.8164C12.731 16.5771 12.731 16.1054 13.0328 15.7906C13.272 15.5513 13.75 15.5513 13.9892 15.7906C14.3036 16.1049 14.3036 16.5771 13.9892 16.8164ZM14.6184 15.2366C14.3796 14.9217 14.3796 14.45 14.6184 14.2108C14.8576 13.896 15.3356 13.896 15.6509 14.2108C15.8897 14.45 15.8897 14.9222 15.6509 15.2366C15.3361 15.4758 14.8576 15.4758 14.6184 15.2366ZM16.4312 17.6029C16.2045 17.9177 15.726 17.9177 15.4117 17.6029C15.1724 17.3637 15.1724 16.8915 15.4117 16.659C15.726 16.3379 16.205 16.3379 16.4312 16.659C16.7585 16.8919 16.7585 17.3637 16.4312 17.6029ZM16.2045 13.5811C15.9657 13.3419 15.9657 12.8702 16.2045 12.5486C16.5193 12.3161 16.9848 12.3161 17.2245 12.5486C17.5388 12.8697 17.5388 13.3419 17.2245 13.5811C16.9848 13.8959 16.5198 13.8959 16.2045 13.5811ZM17.0733 16.0231C16.7585 15.7906 16.7585 15.3116 17.0733 14.9973C17.3 14.6825 17.7785 14.6825 18.0929 14.9973C18.3321 15.3121 18.3321 15.7906 18.0929 16.0231C17.7785 16.2623 17.3 16.2623 17.0733 16.0231ZM18.8861 18.4718C18.5713 18.7048 18.0929 18.7048 17.8536 18.4718C17.5393 18.157 17.5393 17.679 17.8536 17.446C18.0929 17.1312 18.5708 17.1312 18.8861 17.446C19.1254 17.6785 19.1254 18.157 18.8861 18.4718ZM17.7785 9.71002L11.6224 3.63618L13.5113 1.74155C15.248 0.0861487 17.9422 0.0861487 19.6789 1.74155C21.3406 3.40322 21.3406 6.15998 19.6789 7.89721L17.7785 9.71002ZM4.03179 11.2085L10.1123 17.3642L8.22347 19.2588C6.56229 20.9137 3.80505 20.9137 2.14339 19.2588C0.406631 17.5278 0.406631 14.8404 2.14339 13.1094L4.03179 11.2085Z" fill="currentColor"/>
</svg>
