<svg width="16" height="23" viewBox="0 0 16 23" fill="none" xmlns="http://www.w3.org/2000/svg">
<path id="Vector" d="M15.1048 21.2848H8.96449C8.52284 21.2848 8.2606 20.9397 8.2606 20.5941V19.0349C8.2606 18.3452 8.6194 17.7384 9.21302 17.483C9.47526 17.3933 9.57183 17.1311 9.47527 16.9659L8.86793 15.4067C8.86793 15.2342 8.86793 15.0616 9.04733 15.0616L13.725 13.1578C13.8907 13.1578 13.9735 12.9853 14.0701 12.8956C14.1529 12.723 14.1529 12.5505 14.0701 12.3785C13.9735 12.1162 13.6285 11.9505 13.2976 12.0334L6.01172 14.8901C5.84604 14.9724 5.66663 15.2347 5.74947 15.4072L5.84603 15.7518C5.84603 15.8415 5.84603 15.9243 5.74947 16.014C5.74947 16.0963 5.58379 16.0964 5.48723 16.0964C4.79758 16.014 3.58291 15.4895 3.15551 13.4201C2.63101 10.481 5.32207 9.0938 6.61906 8.57616C6.79846 8.48646 6.96414 8.48646 7.14354 8.57616C7.30923 8.65901 7.39207 8.7487 7.48863 8.92125L7.22638 9.00356C7.14354 9.09327 7.14354 9.17611 7.14354 9.26582C7.22639 9.34866 7.22639 9.34865 7.30923 9.34865C7.39208 9.34865 7.39207 9.34865 7.39207 9.34865L7.65432 9.26582C7.83372 9.52067 8.09596 9.78345 8.44105 9.86629L8.34449 10.1285C8.34449 10.3011 8.44105 10.3908 8.52389 10.3908C8.62046 10.3908 8.7033 10.3011 8.7033 10.2182L8.78615 9.95598C8.86899 10.0457 8.96555 10.0457 9.04839 10.0457C9.31063 10.0457 9.47632 9.95599 9.73856 9.86629L9.82141 10.2182C9.91797 10.2182 10.0008 10.3011 10.0008 10.3011C10.0837 10.3011 10.0837 10.3011 10.0837 10.3011C10.1665 10.2182 10.2631 10.1285 10.1665 10.0457L10.0008 9.70059C10.2631 9.52119 10.5253 9.34917 10.6076 9.00408L10.8699 9.17664C10.8699 9.17664 10.8699 9.17664 10.9527 9.17664L11.0356 9.09381C11.1184 9.0041 11.1184 8.83207 11.0356 8.83207L10.6905 8.65954C10.7733 8.5767 10.7733 8.39729 10.7733 8.31498C10.7733 8.0522 10.6905 7.88017 10.6076 7.62426L10.8699 7.53457C10.9527 7.53457 10.9527 7.45224 10.9527 7.27969C10.8699 7.18999 10.7733 7.19 10.6905 7.19L10.5248 7.36256C10.3454 7.19001 10.2625 7.01745 10.0831 6.92775C10.0003 6.84543 9.91744 6.75573 9.82088 6.67236L7.83372 2.17461C7.65431 1.83005 7.22691 1.65647 6.79898 1.83007C6.70242 1.83007 6.61958 1.83007 6.53674 1.657L6.10881 0.877621C6.01225 0.532533 5.66716 0.442835 5.40491 0.532537C5.15638 0.705081 5.05983 1.05018 5.15639 1.31243L5.58431 2.08543C5.58431 2.17513 5.58431 2.26485 5.58431 2.26485C5.48775 2.34769 5.48775 2.3477 5.40491 2.43741C5.23923 2.51972 5.05982 2.6094 4.97698 2.78194C4.97698 3.0368 4.97698 3.21621 4.97698 3.38242L5.66716 4.76964C5.75 5.02398 5.66716 5.28726 5.40491 5.37643C3.68 6.15578 0.133612 8.39835 0.989473 13.4211C1.4174 15.9254 2.81094 17.0498 3.94224 17.6566C4.45302 17.912 4.79811 18.437 4.79811 19.1262V20.506C4.79811 20.9408 4.53586 21.203 4.10793 21.203H2.5487C2.28646 21.203 2.12077 21.4579 2.12077 21.6373V22.5H15.5333V21.7207C15.5323 21.4568 15.3671 21.2848 15.1048 21.2848ZM6.19059 6.32676C6.27344 6.32676 6.43912 6.40907 6.43912 6.58109C6.43912 6.75416 6.27344 6.92617 6.19059 6.92617C6.01119 6.92617 5.84551 6.75416 5.84551 6.58109C5.84551 6.40907 6.01119 6.32676 6.19059 6.32676ZM6.53568 17.2208C6.70137 17.2208 6.79793 17.3933 6.79793 17.5653C6.79793 17.6551 6.70137 17.8281 6.53568 17.8281C6.35628 17.8281 6.27343 17.6551 6.27343 17.5653C6.27343 17.3933 6.35628 17.2208 6.53568 17.2208Z" fill="currentColor"/>
</svg>
