<svg width="21" height="21" viewBox="0 0 21 21" fill="none" xmlns="http://www.w3.org/2000/svg">
<path id="Vector (Stroke)" fill-rule="evenodd" clip-rule="evenodd" d="M19.2754 2.07895H2.17018V0.5H19.2754V2.07895ZM2.05394 3.76622C2.12774 3.3972 2.45175 3.13158 2.82808 3.13158H18.6176C18.9939 3.13158 19.3179 3.3972 19.3917 3.76622L20.7075 10.3452C20.7539 10.5771 20.6938 10.8176 20.5439 11.0005C20.3939 11.1834 20.1699 11.2895 19.9333 11.2895H19.407V18.9211H20.5912V20.5H0.854395V18.9211H2.03861V11.2895H1.51229C1.27577 11.2895 1.05171 11.1834 0.901756 11.0005C0.751804 10.8176 0.691761 10.5771 0.738147 10.3452L2.05394 3.76622ZM3.61755 11.2895V18.9211H17.8281V11.2895H16.7754V15.2368H4.67018V11.2895H3.61755ZM6.24913 11.2895V13.6579H15.1965V11.2895H6.24913ZM18.9703 9.71053L17.9703 4.71053H3.47529L2.47529 9.71053H18.9703Z" fill="currentColor"/>
</svg>
