<svg width="24" height="25" viewBox="0 0 24 25" fill="none" xmlns="http://www.w3.org/2000/svg">
<g id="Frame 1618868560">
<g id="Verified">
<path id="Vector" d="M21.1526 12.2443L20.8527 12.6191L21.1526 12.994L22.6035 14.8076C22.7056 14.9385 22.7837 15.0788 22.8397 15.2299C22.8921 15.3713 22.9195 15.5232 22.9195 15.6895C22.9195 15.8629 22.8937 16.0212 22.8449 16.1677C22.7953 16.3162 22.7252 16.4475 22.6346 16.5648C22.5431 16.6832 22.4315 16.7875 22.2961 16.8777C22.1613 16.9676 22.0156 17.0351 21.8567 17.0807C21.8561 17.0809 21.8554 17.0811 21.8547 17.0813L19.6208 17.7011L19.1631 17.8282L19.1817 18.3028C19.1975 18.705 19.2172 19.111 19.2408 19.5209C19.2637 19.9174 19.279 20.3139 19.2867 20.7105C19.2861 20.9155 19.2491 21.096 19.1811 21.2582C19.1109 21.4255 19.0131 21.5677 18.8856 21.6899C18.7485 21.8213 18.5908 21.9278 18.4093 22.0098C18.2513 22.0812 18.0708 22.1207 17.8594 22.1207C17.6907 22.1207 17.5232 22.0912 17.3538 22.0295L15.1889 21.2103L14.7403 21.0406L14.4759 21.4408L13.1986 23.3744L13.1986 23.3743L13.1958 23.3786C13.0627 23.5839 12.8966 23.735 12.6932 23.8421C12.4843 23.9521 12.254 24.0124 11.9934 24.0191C11.7472 24.0182 11.5252 23.9626 11.3185 23.8538C11.1167 23.7476 10.945 23.5926 10.802 23.3753L10.8014 23.3744L9.52406 21.4408L9.25969 21.0406L8.8111 21.2103L6.64621 22.0295C6.47685 22.0912 6.30927 22.1207 6.14062 22.1207C5.93333 22.1207 5.75111 22.0837 5.5875 22.015C5.41787 21.9439 5.26816 21.8435 5.1352 21.7105C5.00224 21.5775 4.9018 21.4278 4.83066 21.2582C4.7606 21.0911 4.71996 20.9056 4.71328 20.6962C4.71345 20.3045 4.72484 19.9127 4.74744 19.5209C4.77087 19.1149 4.79429 18.7127 4.81771 18.3145L4.84617 17.8307L4.37918 17.7011L2.1409 17.08L2.14003 17.0798C1.97407 17.034 1.83371 16.9679 1.71373 16.8844C1.58384 16.794 1.47225 16.6879 1.37711 16.5648C1.28648 16.4475 1.21638 16.3162 1.16687 16.1677C1.11677 16.0174 1.08727 15.8555 1.0805 15.6797C1.08159 15.5273 1.10818 15.3823 1.16031 15.2416C1.21657 15.0897 1.29577 14.9436 1.40055 14.8026L2.84743 12.994L3.14728 12.6191L2.84743 12.2443L1.3943 10.4279L1.39431 10.4279L1.39236 10.4255C1.18112 10.1642 1.08047 9.87918 1.08047 9.54883C1.08047 9.37543 1.10631 9.21711 1.15515 9.0706C1.20466 8.92205 1.27477 8.7908 1.3654 8.67351C1.46053 8.55039 1.57212 8.44423 1.70201 8.35387C1.81871 8.27269 1.96071 8.20631 2.13507 8.15982L2.13507 8.15985L2.1409 8.15823L4.37918 7.53714L4.8369 7.41013L4.81829 6.93547C4.80252 6.53328 4.78281 6.12725 4.75916 5.71739C4.73628 5.32086 4.72099 4.92434 4.71329 4.52784C4.71392 4.32277 4.75092 4.14228 4.81894 3.98008C4.88908 3.81283 4.9869 3.67058 5.11436 3.54843C5.25151 3.41699 5.40916 3.31045 5.5907 3.22846C5.74867 3.15712 5.92916 3.11758 6.14062 3.11758C6.30929 3.11758 6.47688 3.14707 6.64626 3.20884L8.8111 4.02797L9.25969 4.19771L9.52406 3.79751L10.8014 1.86392L10.8014 1.86393L10.8042 1.85972C10.9373 1.65442 11.1034 1.50325 11.3068 1.39619C11.5157 1.28623 11.7461 1.22588 12.0066 1.21915C12.2528 1.22013 12.4748 1.27569 12.6815 1.38447C12.8833 1.49067 13.055 1.64564 13.198 1.86297L13.1986 1.86392L14.4759 3.79751L14.7403 4.19771L15.1889 4.02797L17.3538 3.20883C17.5231 3.14706 17.6907 3.11758 17.8594 3.11758C18.0667 3.11758 18.2489 3.15463 18.4125 3.22324C18.5821 3.29437 18.7318 3.39482 18.8648 3.52778C18.9978 3.66074 19.0982 3.81045 19.1693 3.98008C19.2394 4.14714 19.28 4.33273 19.2867 4.54206C19.2865 4.93381 19.2752 5.32559 19.2526 5.71739C19.2291 6.12342 19.2057 6.52554 19.1823 6.92375L19.1538 7.40755L19.6208 7.53714L21.8547 8.15699C21.8554 8.15719 21.8561 8.15738 21.8567 8.15758C22.0156 8.20319 22.1613 8.2707 22.2961 8.36056C22.4281 8.44858 22.5316 8.54847 22.6124 8.65954C22.7033 8.78449 22.7795 8.92679 22.8397 9.08925C22.8921 9.23071 22.9195 9.38256 22.9195 9.54883C22.9195 9.87918 22.8189 10.1642 22.6076 10.4255L22.6057 10.4279L21.1526 12.2443Z" stroke="currentColor" stroke-width="1.2"/>
<path id="Vector 7" d="M8 12.5268L9.62629 14.2208C10.0175 14.6283 10.6684 14.6311 11.0631 14.227L15.1915 10" stroke="currentColor" stroke-width="1.2" stroke-linecap="round"/>
</g>
</g>
</svg>
